<?xml version="1.0" encoding="UTF-8" standalone="no"?>
<!-- Created with Inkscape (http://www.inkscape.org/) -->

<svg
   width="174.32504mm"
   height="50.801792mm"
   viewBox="0 0 174.32504 50.801792"
   version="1.1"
   id="svg5"
   sodipodi:docname="DesignedBy.svg"
   inkscape:version="1.1.2 (b8e25be833, 2022-02-05)"
   xmlns:inkscape="http://www.inkscape.org/namespaces/inkscape"
   xmlns:sodipodi="http://sodipodi.sourceforge.net/DTD/sodipodi-0.dtd"
   xmlns="http://www.w3.org/2000/svg"
   xmlns:svg="http://www.w3.org/2000/svg">
  <sodipodi:namedview
     id="namedview7"
     pagecolor="#ffffff"
     bordercolor="#999999"
     borderopacity="1"
     inkscape:pageshadow="0"
     inkscape:pageopacity="0"
     inkscape:pagecheckerboard="0"
     inkscape:document-units="mm"
     showgrid="false"
     inkscape:zoom="1.0179639"
     inkscape:cx="214.15297"
     inkscape:cy="124.26766"
     inkscape:window-width="1920"
     inkscape:window-height="1001"
     inkscape:window-x="-9"
     inkscape:window-y="-9"
     inkscape:window-maximized="1"
     inkscape:current-layer="text1110" />
  <defs
     id="defs2">
    <rect
       x="569.76477"
       y="263.27063"
       width="278.98828"
       height="70.729424"
       id="rect28235" />
    <rect
       x="200.05301"
       y="179.21416"
       width="473.73666"
       height="134.75793"
       id="rect1112" />
  </defs>
  <g
     inkscape:label="Calque 1"
     inkscape:groupmode="layer"
     id="layer1"
     transform="translate(-0.48815373,-26.622964)">
    <g
       aria-label="DESIGNED BY
REMI   ETE"
       transform="matrix(0.63912939,0,0,0.63912939,-192.53454,-92.567483)"
       id="text1110"
       style="font-size:40px;line-height:1.25;white-space:pre;shape-inside:url(#rect1112)">
      <path
         d="m 302.00879,186.97704 h 10.56641 q 3.57421,0 5.44921,0.54687 2.51954,0.74219 4.31641,2.63672 1.79688,1.89453 2.73438,4.64844 0.9375,2.73437 0.9375,6.75781 0,3.53516 -0.87891,6.09375 -1.07422,3.125 -3.06641,5.0586 -1.5039,1.46484 -4.0625,2.28515 -1.91406,0.60547 -5.11718,0.60547 h -10.87891 z m 5.78125,4.84375 v 18.96484 h 4.31641 q 2.42187,0 3.49609,-0.27344 1.40625,-0.35156 2.32422,-1.1914 0.9375,-0.83985 1.52344,-2.75391 0.58593,-1.93359 0.58593,-5.2539 0,-3.32032 -0.58593,-5.09766 -0.58594,-1.77734 -1.64063,-2.77344 -1.05469,-0.99609 -2.67578,-1.34765 -1.21094,-0.27344 -4.74609,-0.27344 z"
         style="font-weight:bold;font-family:Arial;-inkscape-font-specification:'Arial Bold';text-align:center;text-anchor:middle"
         id="path32973" />
      <path
         d="m 330.91504,215.60985 v -28.63281 h 21.23047 v 4.84375 h -15.44922 v 6.34765 h 14.375 v 4.82422 h -14.375 v 7.79297 h 15.99609 v 4.82422 z"
         style="font-weight:bold;font-family:Arial;-inkscape-font-specification:'Arial Bold';text-align:center;text-anchor:middle"
         id="path32975" />
      <path
         d="m 356.12988,206.29344 5.625,-0.54687 q 0.50782,2.83203 2.05078,4.16016 1.5625,1.32812 4.19922,1.32812 2.79297,0 4.19922,-1.17187 1.42578,-1.19141 1.42578,-2.77344 0,-1.01563 -0.60547,-1.71875 -0.58593,-0.72266 -2.07031,-1.25 -1.01562,-0.35156 -4.6289,-1.25 -4.64844,-1.15235 -6.52344,-2.83203 -2.63672,-2.36328 -2.63672,-5.76172 0,-2.1875 1.23047,-4.08203 1.25,-1.91407 3.57422,-2.91016 2.34375,-0.99609 5.64453,-0.99609 5.39062,0 8.10547,2.36328 2.73437,2.36328 2.87109,6.30859 l -5.78125,0.25391 q -0.37109,-2.20703 -1.60156,-3.16406 -1.21094,-0.97657 -3.65235,-0.97657 -2.51953,0 -3.94531,1.03516 -0.91797,0.66406 -0.91797,1.77734 0,1.01563 0.85938,1.73828 1.09375,0.91797 5.3125,1.91407 4.21875,0.99609 6.23047,2.07031 2.03125,1.05469 3.16406,2.91016 1.15234,1.83593 1.15234,4.55078 0,2.46093 -1.36718,4.60937 -1.36719,2.14844 -3.86719,3.20313 -2.5,1.03515 -6.23047,1.03515 -5.42969,0 -8.33984,-2.5 -2.91016,-2.51953 -3.47657,-7.32422 z"
         style="font-weight:bold;font-family:Arial;-inkscape-font-specification:'Arial Bold';text-align:center;text-anchor:middle"
         id="path32977" />
      <path
         d="m 384.09863,215.60985 v -28.63281 h 5.78125 v 28.63281 z"
         style="font-weight:bold;font-family:Arial;-inkscape-font-specification:'Arial Bold';text-align:center;text-anchor:middle"
         id="path32979" />
      <path
         d="m 408.70801,205.08251 v -4.82422 h 12.46094 v 11.40625 q -1.81641,1.75781 -5.27344,3.10547 -3.4375,1.32812 -6.97266,1.32812 -4.49219,0 -7.83203,-1.875 -3.33984,-1.89453 -5.01953,-5.39062 -1.67969,-3.51563 -1.67969,-7.63672 0,-4.47266 1.875,-7.94922 1.875,-3.47656 5.48828,-5.33203 2.75391,-1.42578 6.85547,-1.42578 5.33203,0 8.32031,2.24609 3.00782,2.22656 3.86719,6.17188 l -5.74219,1.07421 q -0.60546,-2.10937 -2.28515,-3.32031 -1.66016,-1.23047 -4.16016,-1.23047 -3.78906,0 -6.03515,2.40235 -2.22657,2.40234 -2.22657,7.1289 0,5.09766 2.26563,7.65625 2.26562,2.53907 5.9375,2.53907 1.8164,0 3.63281,-0.70313 1.83594,-0.72266 3.14453,-1.73828 v -3.63281 z"
         style="font-weight:bold;font-family:Arial;-inkscape-font-specification:'Arial Bold';text-align:center;text-anchor:middle"
         id="path32981" />
      <path
         d="m 426.55957,215.60985 v -28.63281 h 5.625 l 11.71875,19.12109 v -19.12109 h 5.37109 v 28.63281 h -5.80078 l -11.54297,-18.67187 v 18.67187 z"
         style="font-weight:bold;font-family:Arial;-inkscape-font-specification:'Arial Bold';text-align:center;text-anchor:middle"
         id="path32983" />
      <path
         d="m 455.3877,215.60985 v -28.63281 h 21.23046 v 4.84375 h -15.44921 v 6.34765 h 14.375 v 4.82422 h -14.375 v 7.79297 h 15.99609 v 4.82422 z"
         style="font-weight:bold;font-family:Arial;-inkscape-font-specification:'Arial Bold';text-align:center;text-anchor:middle"
         id="path32985" />
      <path
         d="m 482.04785,186.97704 h 10.56641 q 3.57422,0 5.44922,0.54687 2.51953,0.74219 4.3164,2.63672 1.79688,1.89453 2.73438,4.64844 0.9375,2.73437 0.9375,6.75781 0,3.53516 -0.87891,6.09375 -1.07422,3.125 -3.0664,5.0586 -1.50391,1.46484 -4.0625,2.28515 -1.91407,0.60547 -5.11719,0.60547 h -10.87891 z m 5.78125,4.84375 v 18.96484 h 4.31641 q 2.42187,0 3.49609,-0.27344 1.40625,-0.35156 2.32422,-1.1914 0.9375,-0.83985 1.52344,-2.75391 0.58594,-1.93359 0.58594,-5.2539 0,-3.32032 -0.58594,-5.09766 -0.58594,-1.77734 -1.64063,-2.77344 -1.05468,-0.99609 -2.67578,-1.34765 -1.21094,-0.27344 -4.74609,-0.27344 z"
         style="font-weight:bold;font-family:Arial;-inkscape-font-specification:'Arial Bold';text-align:center;text-anchor:middle"
         id="path32987" />
      <path
         d="m 522.08691,186.97704 h 11.44532 q 3.39843,0 5.05859,0.29297 1.67969,0.27343 2.98828,1.17187 1.32813,0.89844 2.20703,2.40235 0.87891,1.48437 0.87891,3.33984 0,2.01172 -1.09375,3.69141 -1.07422,1.67968 -2.92969,2.51953 2.61719,0.76172 4.02344,2.59765 1.40625,1.83594 1.40625,4.31641 0,1.95312 -0.91797,3.80859 -0.89844,1.83594 -2.48047,2.94922 -1.5625,1.09375 -3.86719,1.34766 -1.44531,0.15625 -6.97265,0.19531 h -9.7461 z m 5.78125,4.76562 v 6.6211 h 3.78907 q 3.3789,0 4.19922,-0.0977 1.48437,-0.17578 2.32421,-1.01562 0.85938,-0.85938 0.85938,-2.2461 0,-1.32812 -0.74219,-2.14844 -0.72265,-0.83984 -2.16797,-1.01562 -0.85937,-0.0977 -4.9414,-0.0977 z m 0,11.38672 v 7.65625 h 5.35157 q 3.125,0 3.96484,-0.17578 1.28906,-0.23437 2.08984,-1.13281 0.82032,-0.91797 0.82032,-2.44141 0,-1.28906 -0.625,-2.1875 -0.625,-0.89844 -1.81641,-1.30859 -1.17187,-0.41016 -5.11719,-0.41016 z"
         style="font-weight:bold;font-family:Arial;-inkscape-font-specification:'Arial Bold';text-align:center;text-anchor:middle"
         id="path32989" />
      <path
         d="m 558.47363,215.60985 v -12.05078 l -10.48828,-16.58203 h 6.77735 l 6.73828,11.32812 6.60156,-11.32812 h 6.66016 l -10.52735,16.62109 v 12.01172 z"
         style="font-weight:bold;font-family:Arial;-inkscape-font-specification:'Arial Bold';text-align:center;text-anchor:middle"
         id="path32991" />
      <path
         d="m 334.28418,265.97469 v -28.63281 h 12.16797 q 4.58984,0 6.66015,0.78125 2.08985,0.76171 3.33985,2.73437 1.25,1.97266 1.25,4.51172 0,3.22266 -1.89453,5.33203 -1.89453,2.08984 -5.66407,2.63672 1.875,1.09375 3.08594,2.40234 1.23047,1.3086 3.30078,4.64844 l 3.4961,5.58594 h -6.91407 l -4.17968,-6.23047 q -2.22657,-3.33984 -3.04688,-4.19922 -0.82031,-0.87891 -1.73828,-1.19141 -0.91797,-0.33203 -2.91016,-0.33203 h -1.17187 v 11.95313 z m 5.78125,-16.52344 h 4.27734 q 4.16016,0 5.19532,-0.35156 1.03515,-0.35156 1.62109,-1.21094 0.58594,-0.85937 0.58594,-2.14844 0,-1.44531 -0.78125,-2.32422 -0.76172,-0.89843 -2.16797,-1.13281 -0.70313,-0.0976 -4.21875,-0.0976 h -4.51172 z"
         style="font-weight:bold;font-family:Arial;-inkscape-font-specification:'Arial Bold';text-align:center;text-anchor:middle"
         id="path32993" />
      <path
         d="m 363.15137,265.97469 v -28.63281 h 21.23047 v 4.84375 h -15.44922 v 6.34765 h 14.375 v 4.82422 h -14.375 v 7.79297 h 15.99609 v 4.82422 z"
         style="font-weight:bold;font-family:Arial;-inkscape-font-specification:'Arial Bold';text-align:center;text-anchor:middle"
         id="path32995" />
      <path
         d="m 389.75293,265.97469 v -28.63281 h 8.65234 l 5.19532,19.53125 5.13671,-19.53125 h 8.67188 v 28.63281 h -5.37109 v -22.53906 l -5.6836,22.53906 h -5.5664 l -5.66407,-22.53906 v 22.53906 z"
         style="font-weight:bold;font-family:Arial;-inkscape-font-specification:'Arial Bold';text-align:center;text-anchor:middle"
         id="path32997" />
      <path
         d="m 422.97559,265.97469 v -28.63281 h 5.78125 v 28.63281 z"
         style="font-weight:bold;font-family:Arial;-inkscape-font-specification:'Arial Bold';text-align:center;text-anchor:middle"
         id="path32999" />
      <path
         d="m 467.60449,265.97469 v -28.63281 h 21.23047 v 4.84375 h -15.44922 v 6.34765 h 14.375 v 4.82422 h -14.375 v 7.79297 h 15.9961 v 4.82422 z"
         style="font-weight:bold;font-family:Arial;-inkscape-font-specification:'Arial Bold';text-align:center;text-anchor:middle"
         id="path33001" />
      <path
         d="m 500.72949,265.97469 v -23.78906 h -8.49609 v -4.84375 h 22.7539 v 4.84375 h -8.47656 v 23.78906 z"
         style="font-weight:bold;font-family:Arial;-inkscape-font-specification:'Arial Bold';text-align:center;text-anchor:middle"
         id="path33003" />
      <path
         d="m 518.71777,265.97469 v -28.63281 h 21.23047 v 4.84375 h -15.44922 v 6.34765 h 14.375 v 4.82422 h -14.375 v 7.79297 h 15.9961 v 4.82422 z"
         style="font-weight:bold;font-family:Arial;-inkscape-font-specification:'Arial Bold';text-align:center;text-anchor:middle"
         id="path33005" />
    </g>
    <text
       xml:space="preserve"
       transform="scale(0.26458333)"
       id="text28233"
       style="font-style:normal;font-weight:normal;font-size:40px;line-height:1.25;font-family:sans-serif;white-space:pre;shape-inside:url(#rect28235);fill:#000000;fill-opacity:1;stroke:none" />
  </g>
</svg>
